# Blender v2.90.1 OBJ File: 'flood_light.blend'
# www.blender.org
mtllib flood_light_pos_0_v_neg_20.mtl
o group_ID37
v -0.312500 -0.273068 0.135565
v 0.312500 0.330394 -0.026132
v -0.312500 0.427413 0.335945
v 0.312500 0.427413 0.335945
v -0.312500 -0.176050 0.497642
v 0.312500 -0.273068 0.135565
v 0.312500 -0.176050 0.497642
v -0.312500 0.330394 -0.026132
v -0.250000 -0.309740 -0.242682
v 0.250000 0.173029 -0.372040
v -0.250000 0.270048 -0.009963
v 0.250000 0.270048 -0.009963
v -0.250000 -0.212722 0.119395
v 0.250000 -0.309740 -0.242682
v 0.250000 -0.212722 0.119395
v -0.250000 0.173029 -0.372040
v -0.375000 -0.432319 0.374875
v -0.375000 -0.494794 -0.374825
v 0.375000 -0.494794 -0.374825
v 0.375000 -0.432319 -0.374825
v -0.375000 -0.494794 0.374875
v 0.375000 -0.494794 0.374875
v -0.375000 -0.432319 -0.374825
v 0.375000 -0.432319 0.374875
v 0.125000 -0.432319 -0.124925
v 0.125000 -0.432319 0.124975
v -0.125000 -0.160594 0.124975
v -0.125000 -0.432319 -0.124925
v 0.125000 -0.160594 0.124975
v -0.125000 -0.432319 0.124975
v -0.125000 -0.160594 -0.124925
v 0.125000 -0.160594 -0.124925
vt 0.479167 0.750000
vt 0.479167 0.625000
vt 0.270833 0.625000
vt 0.270833 0.750000
vt 0.479167 0.979167
vt 0.270833 0.979167
vt 0.270833 0.770833
vt 0.479167 0.770833
vt 0.020833 0.625000
vt 0.229167 0.625000
vt 0.229167 0.750000
vt 0.020833 0.750000
vt 0.145833 0.583333
vt 0.145833 0.375000
vt 0.020833 0.375000
vt 0.020833 0.583333
vt 0.312500 0.375000
vt 0.312500 0.583333
vt 0.187500 0.583333
vt 0.187500 0.375000
vt 0.020833 0.979167
vt 0.229167 0.979167
vt 0.229167 0.770833
vt 0.020833 0.770833
vt 0.770833 0.770833
vt 0.770833 0.645833
vt 0.604167 0.645833
vt 0.604167 0.770833
vt 0.979167 0.979167
vt 0.812500 0.979167
vt 0.812500 0.812500
vt 0.979167 0.812500
vt 0.812500 0.645833
vt 0.979167 0.645833
vt 0.979167 0.770833
vt 0.812500 0.770833
vt 0.770833 0.604167
vt 0.770833 0.437500
vt 0.645833 0.437500
vt 0.645833 0.604167
vt 0.937500 0.437500
vt 0.937500 0.604167
vt 0.812500 0.604167
vt 0.812500 0.437500
vt 0.604167 0.979167
vt 0.770833 0.979167
vt 0.770833 0.812500
vt 0.604167 0.812500
vt 0.270833 0.020833
vt 0.270833 0.041667
vt 0.020833 0.041667
vt 0.020833 0.020833
vt 0.270833 0.083333
vt 0.020833 0.083333
vt 0.020833 0.062500
vt 0.270833 0.062500
vt 0.562500 0.354167
vt 0.562500 0.104167
vt 0.312500 0.104167
vt 0.312500 0.354167
vt 0.270833 0.104167
vt 0.270833 0.354167
vt 0.020833 0.354167
vt 0.020833 0.104167
vt 0.562500 0.041667
vt 0.562500 0.020833
vt 0.312500 0.020833
vt 0.312500 0.041667
vt 0.312500 0.083333
vt 0.562500 0.083333
vt 0.562500 0.062500
vt 0.312500 0.062500
vt 0.958333 0.208333
vt 0.958333 0.125000
vt 0.875000 0.125000
vt 0.875000 0.208333
vt 0.958333 0.250000
vt 0.958333 0.333333
vt 0.875000 0.333333
vt 0.875000 0.250000
vt 0.854167 0.333333
vt 0.854167 0.250000
vt 0.770833 0.250000
vt 0.770833 0.333333
vt 0.854167 0.104167
vt 0.770833 0.104167
vt 0.770833 0.020833
vt 0.854167 0.020833
vt 0.854167 0.208333
vt 0.770833 0.208333
vt 0.770833 0.125000
vt 0.854167 0.125000
vt 0.875000 0.104167
vt 0.958333 0.104167
vt 0.958333 0.020833
vt 0.875000 0.020833
vn 0.0000 -0.9659 0.2588
vn 0.0000 -0.2588 -0.9659
vn 0.0000 0.9659 -0.2588
vn 1.0000 0.0000 0.0000
vn -1.0000 0.0000 0.0000
vn 0.0000 0.2588 0.9659
vn 0.0000 0.0000 -1.0000
vn 0.0000 -1.0000 0.0000
vn 0.0000 1.0000 0.0000
vn 0.0000 0.0000 1.0000
usemtl material
s off
f 5/1/1 1/2/1 6/3/1 7/4/1
f 8/5/2 2/6/2 6/7/2 1/8/2
f 2/9/3 8/10/3 3/11/3 4/12/3
f 4/13/4 7/14/4 6/15/4 2/16/4
f 5/17/5 3/18/5 8/19/5 1/20/5
f 4/21/6 3/22/6 5/23/6 7/24/6
f 13/25/1 9/26/1 14/27/1 15/28/1
f 16/29/2 10/30/2 14/31/2 9/32/2
f 10/33/3 16/34/3 11/35/3 12/36/3
f 12/37/4 15/38/4 14/39/4 10/40/4
f 13/41/5 11/42/5 16/43/5 9/44/5
f 12/45/6 11/46/6 13/47/6 15/48/6
f 21/49/5 17/50/5 23/51/5 18/52/5
f 23/53/7 20/54/7 19/55/7 18/56/7
f 21/57/8 18/58/8 19/59/8 22/60/8
f 23/61/9 17/62/9 24/63/9 20/64/9
f 24/65/4 22/66/4 19/67/4 20/68/4
f 24/69/10 17/70/10 21/71/10 22/72/10
f 29/73/4 26/74/4 25/75/4 32/76/4
f 31/77/9 27/78/9 29/79/9 32/80/9
f 30/81/8 28/82/8 25/83/8 26/84/8
f 27/85/5 31/86/5 28/87/5 30/88/5
f 31/89/7 32/90/7 25/91/7 28/92/7
f 29/93/10 27/94/10 30/95/10 26/96/10
