# Blender v2.90.1 OBJ File: 'flood_light.blend'
# www.blender.org
mtllib flood_light_xp45_yn20.mtl
o group_ID37
v -0.217699 -0.337760 0.247935
v 0.404416 0.265702 0.075469
v 0.044189 0.168684 0.701537
v 0.585455 0.168684 0.389037
v -0.036660 -0.434778 0.561503
v 0.323567 -0.337760 -0.064565
v 0.504606 -0.434778 0.249003
v -0.136850 0.265702 0.387969
v -0.336526 -0.180395 -0.082880
v 0.161166 0.302374 -0.220853
v -0.090808 0.205356 0.342715
v 0.342204 0.205356 0.092715
v -0.155487 -0.277414 0.230688
v 0.096487 -0.180395 -0.332880
v 0.277526 -0.277414 -0.019312
v -0.271847 0.302374 0.029147
v -0.375000 -0.432319 0.374875
v -0.375000 -0.494794 -0.374825
v 0.375000 -0.494794 -0.374825
v 0.375000 -0.432319 -0.374825
v -0.375000 -0.494794 0.374875
v 0.375000 -0.494794 0.374875
v -0.375000 -0.432319 -0.374825
v 0.375000 -0.432319 0.374875
v 0.045790 -0.432319 -0.170688
v 0.170741 -0.432319 0.045732
v -0.045766 -0.160594 0.170732
v -0.170716 -0.432319 -0.045689
v 0.170741 -0.160594 0.045732
v -0.045766 -0.432319 0.170732
v -0.170716 -0.160594 -0.045689
v 0.045790 -0.160594 -0.170688
vt 0.479167 0.750000
vt 0.479167 0.625000
vt 0.270833 0.625000
vt 0.270833 0.750000
vt 0.479167 0.979167
vt 0.270833 0.979167
vt 0.270833 0.770833
vt 0.479167 0.770833
vt 0.020833 0.625000
vt 0.229167 0.625000
vt 0.229167 0.750000
vt 0.020833 0.750000
vt 0.145833 0.583333
vt 0.145833 0.375000
vt 0.020833 0.375000
vt 0.020833 0.583333
vt 0.312500 0.375000
vt 0.312500 0.583333
vt 0.187500 0.583333
vt 0.187500 0.375000
vt 0.020833 0.979167
vt 0.229167 0.979167
vt 0.229167 0.770833
vt 0.020833 0.770833
vt 0.770833 0.770833
vt 0.770833 0.645833
vt 0.604167 0.645833
vt 0.604167 0.770833
vt 0.979167 0.979167
vt 0.812500 0.979167
vt 0.812500 0.812500
vt 0.979167 0.812500
vt 0.812500 0.645833
vt 0.979167 0.645833
vt 0.979167 0.770833
vt 0.812500 0.770833
vt 0.770833 0.604167
vt 0.770833 0.437500
vt 0.645833 0.437500
vt 0.645833 0.604167
vt 0.937500 0.437500
vt 0.937500 0.604167
vt 0.812500 0.604167
vt 0.812500 0.437500
vt 0.604167 0.979167
vt 0.770833 0.979167
vt 0.770833 0.812500
vt 0.604167 0.812500
vt 0.270833 0.020833
vt 0.270833 0.041667
vt 0.020833 0.041667
vt 0.020833 0.020833
vt 0.270833 0.083333
vt 0.020833 0.083333
vt 0.020833 0.062500
vt 0.270833 0.062500
vt 0.562500 0.354167
vt 0.562500 0.104167
vt 0.312500 0.104167
vt 0.312500 0.354167
vt 0.270833 0.104167
vt 0.270833 0.354167
vt 0.020833 0.354167
vt 0.020833 0.104167
vt 0.562500 0.041667
vt 0.562500 0.020833
vt 0.312500 0.020833
vt 0.312500 0.041667
vt 0.312500 0.083333
vt 0.562500 0.083333
vt 0.562500 0.062500
vt 0.312500 0.062500
vt 0.958333 0.208333
vt 0.958333 0.125000
vt 0.875000 0.125000
vt 0.875000 0.208333
vt 0.958333 0.250000
vt 0.958333 0.333333
vt 0.875000 0.333333
vt 0.875000 0.250000
vt 0.854167 0.333333
vt 0.854167 0.250000
vt 0.770833 0.250000
vt 0.770833 0.333333
vt 0.854167 0.104167
vt 0.770833 0.104167
vt 0.770833 0.020833
vt 0.854167 0.020833
vt 0.854167 0.208333
vt 0.770833 0.208333
vt 0.770833 0.125000
vt 0.854167 0.125000
vt 0.875000 0.104167
vt 0.958333 0.104167
vt 0.958333 0.020833
vt 0.875000 0.020833
vn -0.1294 -0.9659 -0.2241
vn -0.4830 0.2588 -0.8365
vn 0.1294 0.9659 0.2241
vn 0.8660 -0.0000 -0.5000
vn -0.8660 -0.0000 0.5000
vn 0.4830 -0.2588 0.8365
vn -1.0000 0.0000 0.0000
vn 0.0000 0.0000 -1.0000
vn 0.0000 -1.0000 0.0000
vn 0.0000 1.0000 0.0000
vn 1.0000 0.0000 0.0000
vn 0.0000 0.0000 1.0000
vn -0.5000 0.0000 -0.8660
vn 0.5000 0.0000 0.8660
usemtl material
s off
f 5/1/1 1/2/1 6/3/1 7/4/1
f 8/5/2 2/6/2 6/7/2 1/8/2
f 2/9/3 8/10/3 3/11/3 4/12/3
f 4/13/4 7/14/4 6/15/4 2/16/4
f 5/17/5 3/18/5 8/19/5 1/20/5
f 4/21/6 3/22/6 5/23/6 7/24/6
f 13/25/1 9/26/1 14/27/1 15/28/1
f 16/29/2 10/30/2 14/31/2 9/32/2
f 10/33/3 16/34/3 11/35/3 12/36/3
f 12/37/4 15/38/4 14/39/4 10/40/4
f 13/41/5 11/42/5 16/43/5 9/44/5
f 12/45/6 11/46/6 13/47/6 15/48/6
f 21/49/7 17/50/7 23/51/7 18/52/7
f 23/53/8 20/54/8 19/55/8 18/56/8
f 21/57/9 18/58/9 19/59/9 22/60/9
f 23/61/10 17/62/10 24/63/10 20/64/10
f 24/65/11 22/66/11 19/67/11 20/68/11
f 24/69/12 17/70/12 21/71/12 22/72/12
f 29/73/4 26/74/4 25/75/4 32/76/4
f 31/77/10 27/78/10 29/79/10 32/80/10
f 30/81/9 28/82/9 25/83/9 26/84/9
f 27/85/5 31/86/5 28/87/5 30/88/5
f 31/89/13 32/90/13 25/91/13 28/92/13
f 29/93/14 27/94/14 30/95/14 26/96/14
