# Blender v2.90.1 OBJ File: 'light_bulb_fluro_bank.blend'
# www.blender.org
mtllib fluro_light_bank.mtl
o fluro_ID200
v -0.875000 -0.125000 0.374999
v -1.000000 -0.125000 -0.375001
v -1.000000 -0.125000 0.374999
v -1.000000 -0.500000 -0.375001
v 1.000000 -0.125000 0.374999
v 1.000000 -0.500000 0.374999
v -1.000000 -0.500000 0.374999
v -0.875000 -0.375000 0.374999
v -0.875000 -0.125000 -0.375001
v 0.875000 -0.125000 -0.375001
v 1.000000 -0.500000 -0.375001
v 0.875000 -0.375000 0.374999
v -0.875000 -0.375000 -0.375001
v 0.875000 -0.375000 -0.375001
v 1.000000 -0.125000 -0.375001
v 0.875000 -0.125000 0.374999
v -0.875001 -0.156250 -0.124999
v -0.875001 -0.343750 -0.124999
v -0.875001 -0.156250 -0.312499
v 0.875000 -0.343750 -0.312499
v -0.875001 -0.343750 -0.312499
v 0.875000 -0.156250 -0.124999
v 0.875000 -0.343750 -0.124999
v 0.875000 -0.156250 -0.312499
v -0.875001 -0.156250 0.312501
v -0.875001 -0.343750 0.312501
v -0.875001 -0.156250 0.125001
v 0.875000 -0.343750 0.125001
v -0.875001 -0.343750 0.125001
v 0.875000 -0.156250 0.312501
v 0.875000 -0.343750 0.312501
v 0.875000 -0.156250 0.125001
vt 0.104167 0.395833
vt 0.020833 0.687500
vt 0.020833 0.395833
vt 0.979167 0.708333
vt 0.854167 1.000000
vt 0.854167 0.708333
vt 0.229167 0.250000
vt 0.812500 0.250000
vt 0.854167 0.291667
vt 0.229167 0.250000
vt 0.187500 0.291667
vt 0.854167 0.291667
vt 0.187500 0.395833
vt 0.812500 0.687500
vt 0.187500 0.687500
vt 0.020833 0.708333
vt 0.145833 1.000000
vt 0.145833 0.708333
vt 0.166667 0.687500
vt 0.125000 0.395833
vt 0.166667 0.395833
vt 0.833333 1.000000
vt 0.166667 0.708333
vt 0.166667 1.000000
vt 0.875000 0.687500
vt 0.833333 0.395833
vt 0.875000 0.395833
vt 0.895833 0.395833
vt 0.979167 0.687500
vt 0.979167 0.395833
vt 0.187500 0.375000
vt 0.812500 0.312500
vt 0.187500 0.312500
vt 0.187500 0.375000
vt 0.812500 0.312500
vt 0.187500 0.312500
vt 0.895833 0.312500
vt 0.833333 0.375000
vt 0.895833 0.375000
vt 0.812500 0.375000
vt 0.187500 0.312500
vt 0.812500 0.375000
vt 0.812500 0.312500
vt 0.895833 0.375000
vt 0.833333 0.312500
vt 0.895833 0.312500
vt 0.187500 0.312500
vt 0.812500 0.375000
vt 0.187500 0.375000
vt 0.187500 0.312500
vt 0.812500 0.312500
vt 0.187500 0.375000
vt 0.812500 0.312500
vt 0.187500 0.312500
vt 0.895833 0.312500
vt 0.833333 0.375000
vt 0.895833 0.375000
vt 0.812500 0.375000
vt 0.187500 0.375000
vt 0.895833 0.375000
vt 0.833333 0.312500
vt 0.895833 0.312500
vt 0.104167 0.687500
vt 0.979167 1.000000
vt 0.812500 0.166667
vt 0.854167 0.166667
vt 0.187500 0.291667
vt 0.187500 0.166667
vt 0.229167 0.166667
vt 0.854167 0.166667
vt 0.812500 0.250000
vt 0.812500 0.166667
vt 0.229167 0.166667
vt 0.187500 0.166667
vt 0.812500 0.395833
vt 0.020833 1.000000
vt 0.125000 0.687500
vt 0.833333 0.708333
vt 0.833333 0.687500
vt 0.895833 0.687500
vt 0.812500 0.375000
vt 0.833333 0.312500
vt 0.187500 0.375000
vt 0.833333 0.375000
vt 0.812500 0.312500
vt 0.812500 0.375000
vt 0.833333 0.312500
vt 0.833333 0.375000
vn 1.0000 0.0000 0.0000
vn 0.0000 0.0000 1.0000
vn 0.0000 0.0000 -1.0000
vn 0.0000 1.0000 0.0000
vn -1.0000 0.0000 0.0000
vn 0.0000 -1.0000 0.0000
usemtl material
s off
f 9/1/1 8/2/1 13/3/1
f 15/4/1 6/5/1 11/6/1
f 12/7/2 8/8/2 7/9/2
f 14/10/3 11/11/3 4/12/3
f 8/13/4 14/14/4 13/15/4
f 4/16/5 3/17/5 2/18/5
f 9/19/4 3/20/4 1/21/4
f 11/22/6 7/23/6 4/24/6
f 15/25/4 16/26/4 5/27/4
f 14/28/5 16/29/5 10/30/5
f 21/31/6 23/32/6 18/33/6
f 17/34/4 24/35/4 19/36/4
f 21/37/5 17/38/5 19/39/5
f 18/33/2 22/40/2 17/34/2
f 21/41/3 24/42/3 20/43/3
f 24/44/1 23/45/1 20/46/1
f 25/47/4 32/48/4 27/49/4
f 29/50/3 32/48/3 28/51/3
f 29/52/6 31/53/6 26/54/6
f 29/55/5 25/56/5 27/57/5
f 26/54/2 30/58/2 25/59/2
f 32/60/1 31/61/1 28/62/1
f 9/1/1 1/63/1 8/2/1
f 15/4/1 5/64/1 6/5/1
f 8/8/2 1/65/2 3/66/2
f 6/67/2 5/68/2 12/7/2
f 5/68/2 16/69/2 12/7/2
f 8/8/2 3/66/2 7/9/2
f 6/67/2 12/7/2 7/9/2
f 4/12/3 2/70/3 13/71/3
f 2/70/3 9/72/3 13/71/3
f 10/73/3 15/74/3 14/10/3
f 15/74/3 11/11/3 14/10/3
f 4/12/3 13/71/3 14/10/3
f 8/13/4 12/75/4 14/14/4
f 4/16/5 7/76/5 3/17/5
f 9/19/4 2/77/4 3/20/4
f 11/22/6 6/78/6 7/23/6
f 15/25/4 10/79/4 16/26/4
f 14/28/5 12/80/5 16/29/5
f 21/31/6 20/81/6 23/32/6
f 17/34/4 22/40/4 24/35/4
f 21/37/5 18/82/5 17/38/5
f 18/33/2 23/32/2 22/40/2
f 21/41/3 19/83/3 24/42/3
f 24/44/1 22/84/1 23/45/1
f 25/47/4 30/85/4 32/48/4
f 29/50/3 27/49/3 32/48/3
f 29/52/6 28/86/6 31/53/6
f 29/55/5 26/87/5 25/56/5
f 26/54/2 31/53/2 30/58/2
f 32/60/1 30/88/1 31/61/1
