# Blender v2.90.1 OBJ File: 'light_bulb.blend'
# www.blender.org
mtllib incandescent_light_bulb.mtl
o mesh_ID4
v 0.125000 -0.500000 0.125000
v 0.125000 -0.290667 -0.125000
v -0.125000 -0.500000 0.125000
v -0.125000 -0.290667 0.125000
v 0.125000 -0.500000 -0.125000
v -0.125000 -0.500000 -0.125000
v 0.125000 -0.290667 0.125000
v -0.125000 -0.290667 -0.125000
v -0.250000 -0.312500 0.250000
v -0.250000 0.187500 0.250000
v 0.250000 0.187500 -0.250000
v -0.250000 0.187500 -0.250000
v 0.250000 -0.312500 -0.250000
v -0.250000 -0.312500 -0.250000
v 0.250000 -0.312500 0.250000
v 0.250000 0.187500 0.250000
vt 0.125000 0.312500
vt 0.375000 0.312500
vt 0.375000 0.500000
vt 0.125000 0.500000
vt 0.375000 -0.000000
vt 0.375000 0.250000
vt 0.125000 0.250000
vt 0.125000 -0.000000
vt 0.125000 0.312500
vt 0.375000 0.312500
vt 0.375000 0.500000
vt 0.125000 0.500000
vt 0.375000 0.500000
vt 0.375000 0.312500
vt 0.125000 0.500000
vt 0.125000 0.312500
vt 0.375000 0.000000
vt 0.125000 0.000000
vt 0.125000 0.250000
vt 0.375000 0.250000
vt 1.000000 0.500000
vt 1.000000 1.000000
vt 0.500000 1.000000
vt 0.500000 0.500000
vt 0.000000 1.000000
vt 0.000000 0.500000
vt 0.500000 0.500000
vt 0.500000 1.000000
vt 1.000000 0.500000
vt 1.000000 -0.000000
vt 0.500000 -0.000000
vt 0.500000 0.500000
vt 0.500000 0.500000
vt 0.500000 1.000000
vt -0.000000 1.000000
vt 0.000000 0.500000
vt 0.000000 1.000000
vt 0.000000 0.500000
vt 0.500000 1.000000
vt 0.000000 1.000000
vt -0.000000 0.500000
vt 0.500000 0.500000
vn 1.0000 0.0000 0.0000
vn 0.0000 1.0000 0.0000
vn 0.0000 0.0000 1.0000
vn -1.0000 0.0000 0.0000
vn 0.0000 0.0000 -1.0000
vn 0.0000 -1.0000 0.0000
usemtl material
s off
f 1/1/1 5/2/1 2/3/1 7/4/1
f 7/5/2 2/6/2 8/7/2 4/8/2
f 3/9/3 1/10/3 7/11/3 4/12/3
f 8/13/4 6/14/4 3/9/4 4/12/4
f 8/13/5 2/15/5 5/16/5 6/14/5
f 1/17/6 3/18/6 6/19/6 5/20/6
f 16/21/2 11/22/2 12/23/2 10/24/2
f 12/25/4 14/26/4 9/27/4 10/28/4
f 13/29/6 15/30/6 9/31/6 14/32/6
f 13/33/1 11/34/1 16/35/1 15/36/1
f 12/23/5 11/37/5 13/38/5 14/32/5
f 16/39/3 10/40/3 9/41/3 15/42/3
