# Blender v2.90.1 OBJ File: 'led_panel_1x1.blend'
# www.blender.org
mtllib led_light_panel_1x1.mtl
o Panel_ID214
v -0.499997 -0.250000 -0.499998
v -0.499997 -0.500000 0.500002
v -0.499997 -0.250000 0.500002
v -0.499997 -0.500000 -0.499998
v 0.500003 -0.500000 -0.499998
v -0.499997 -0.500000 0.500002
v -0.499997 -0.500000 -0.499998
v 0.500003 -0.500000 0.500002
v 0.500003 -0.250000 0.500002
v -0.499997 -0.500000 0.500002
v 0.500003 -0.500000 0.500002
v -0.499997 -0.250000 0.500002
v 0.500003 -0.250000 0.500002
v -0.499997 -0.250000 -0.499998
v -0.499997 -0.250000 0.500002
v 0.500003 -0.250000 -0.499998
v -0.499997 -0.250000 -0.499998
v 0.500003 -0.500000 -0.499998
v -0.499997 -0.500000 -0.499998
v 0.500003 -0.250000 -0.499998
v 0.500003 -0.500000 -0.499998
v 0.500003 -0.250000 0.500002
v 0.500003 -0.500000 0.500002
v 0.500003 -0.250000 -0.499998
vt 1.000000 0.200000
vt 1.000000 -0.000000
vt -0.000000 -0.000000
vt -0.000000 0.200000
vt -0.000000 0.200000
vt 1.000000 0.200000
vt 1.000000 -0.000000
vt -0.000000 -0.000000
vt 1.000000 0.200000
vt -0.000000 0.200000
vt -0.000000 -0.000000
vt 1.000000 -0.000000
vt 1.000000 1.000000
vt 1.000000 0.200000
vt 0.000000 0.200000
vt 0.000000 1.000000
vt 1.000000 0.200000
vt 1.000000 1.000000
vt -0.000000 1.000000
vt -0.000000 0.200000
vt 1.000000 -0.000000
vt 1.000000 0.200000
vt -0.000000 0.200000
vt -0.000000 -0.000000
vn -1.0000 0.0000 0.0000
vn 0.0000 0.0000 -1.0000
vn 0.0000 0.0000 1.0000
vn 0.0000 -1.0000 0.0000
vn 0.0000 1.0000 0.0000
vn 1.0000 0.0000 0.0000
usemtl material
s off
f 1/1/1 4/2/1 2/3/1 3/4/1
f 17/5/2 20/6/2 18/7/2 19/8/2
f 9/9/3 12/10/3 10/11/3 11/12/3
f 5/13/4 8/14/4 6/15/4 7/16/4
f 13/17/5 16/18/5 14/19/5 15/20/5
f 21/21/6 24/22/6 22/23/6 23/24/6
