# Blender v2.90.1 OBJ File: 'led_panel_2x3.blend'
# www.blender.org
mtllib led_light_panel_2x3.mtl
o Panel_ID214
v -1.509768 -0.241296 -0.519411
v -1.509768 -0.241296 1.480589
v -1.509768 -0.491296 1.480589
v -1.509768 -0.491296 -0.519411
v 1.490232 -0.491296 -0.519411
v 1.490232 -0.491296 1.480589
v 1.490232 -0.241296 1.480589
v 1.490232 -0.241296 -0.519411
vt 0.923077 0.111111
vt 0.923077 -0.000000
vt 0.000000 -0.000000
vt -0.000000 0.111111
vt 0.923077 0.000000
vt 0.923077 0.111111
vt 0.000000 0.111111
vt 0.000000 -0.000000
vt 0.000000 1.000000
vt 0.923077 1.000000
vt 0.923077 0.111111
vt -0.000000 0.111111
vt 0.923077 1.000000
vt 0.000000 1.000000
vt 0.923077 1.000000
vt 1.000000 1.000000
vt 1.000000 0.111111
vt 0.923077 0.111111
vt 1.000000 1.000000
vt 1.000000 0.111111
vn 0.0000 0.0000 -1.0000
vn 0.0000 0.0000 1.0000
vn 0.0000 -1.0000 0.0000
vn 0.0000 1.0000 0.0000
vn -1.0000 0.0000 0.0000
vn 1.0000 0.0000 0.0000
usemtl material
s off
f 8/1/1 5/2/1 4/3/1 1/4/1
f 6/5/2 7/6/2 2/7/2 3/8/2
f 4/9/3 5/10/3 6/11/3 3/12/3
f 2/7/4 7/6/4 8/13/4 1/14/4
f 1/15/5 4/16/5 3/17/5 2/18/5
f 5/19/6 8/13/6 7/6/6 6/20/6
